<?xml version="1.0" standalone="no"?>
<!DOCTYPE svg PUBLIC "-//W3C//DTD SVG 20010904//EN"
 "http://www.w3.org/TR/2001/REC-SVG-20010904/DTD/svg10.dtd">
<svg version="1.0" xmlns="http://www.w3.org/2000/svg"
 width="512.000000pt" height="512.000000pt" viewBox="0 0 512.000000 512.000000"
 preserveAspectRatio="xMidYMid meet">
<metadata>
Created by potrace 1.11, written by Peter Selinger 2001-2013
</metadata>
<g transform="translate(0.000000,512.000000) scale(0.100000,-0.100000)"
fill="#000000" stroke="none">
<path d="M0 2560 l0 -2560 2560 0 2560 0 0 2560 0 2560 -2560 0 -2560 0 0
-2560z m4069 805 c119 -28 209 -94 253 -184 34 -68 32 -176 -3 -251 -34 -71
-93 -137 -158 -175 -28 -16 -51 -33 -51 -36 0 -3 26 -22 58 -42 98 -61 178
-140 214 -215 30 -61 33 -75 32 -157 0 -110 -23 -164 -99 -241 -97 -98 -230
-144 -416 -145 -134 0 -224 17 -317 63 -136 67 -197 167 -190 313 6 135 75
238 212 315 51 29 71 50 47 50 -6 0 -37 25 -70 56 -41 38 -71 77 -93 122 -31
62 -33 74 -33 167 0 86 4 107 25 150 49 100 155 177 287 209 78 19 223 19 302
1z m-2727 -244 c157 -55 238 -164 238 -322 0 -144 -53 -251 -200 -399 -99
-100 -220 -195 -327 -258 -35 -21 -63 -39 -63 -42 0 -3 51 -1 113 6 61 6 178
17 259 24 l147 13 35 79 c21 47 41 78 50 78 8 0 38 -5 65 -11 l51 -11 -7 -41
c-3 -23 -16 -98 -27 -167 l-21 -125 -472 -3 -471 -2 -16 47 c-9 25 -16 50 -16
54 0 3 30 26 68 50 351 225 547 478 530 684 -10 114 -86 175 -219 175 -101 0
-135 -12 -223 -75 l-76 -54 -37 56 -38 56 60 54 c68 62 177 119 280 145 90 23
235 18 317 -11z m1005 12 l43 -6 2 -526 3 -526 105 -10 105 -10 3 -57 3 -58
-371 0 -370 0 0 59 0 59 115 7 115 7 0 400 c0 376 -1 399 -17 394 -50 -14
-143 -35 -184 -41 -52 -8 -48 -13 -64 91 l-6 42 73 22 c90 27 218 89 278 135
48 37 38 36 167 18z m718 -147 c15 -10 36 -38 47 -63 56 -127 -50 -244 -200
-220 -75 13 -132 106 -111 183 13 46 63 102 103 114 45 14 130 6 161 -14z
m-16 -774 c55 -27 76 -64 76 -132 0 -71 -21 -105 -85 -137 -102 -52 -218 -8
-240 92 -16 70 26 150 95 181 42 19 114 17 154 -4z"/>
<path d="M3825 3248 c-79 -28 -125 -91 -125 -172 0 -93 51 -157 187 -238 112
-67 105 -66 158 -13 63 63 85 113 85 200 0 75 -28 153 -66 187 -50 44 -166 62
-239 36z"/>
<path d="M3711 2529 c-107 -108 -120 -265 -32 -386 58 -80 188 -120 292 -90
180 53 225 245 85 363 -48 40 -261 164 -283 164 -6 0 -34 -23 -62 -51z"/>
</g>
</svg>
